<svg version="1.1"
      xmlns="http://www.w3.org/2000/svg"
      xmlns:xlink="http://www.w3.org/1999/xlink"  id="snapshot-40020" width="250" height="250" viewBox="0 0 250 250"><desc>This image was made on Patterninja.com</desc><defs>
<!-- image 65582 -->
<g id="transformed-65582" data-image="65582" transform="translate(159.18861169915812, 13.188611699158104) rotate(325, 15.811388300841896, 15.811388300841896)"><g><svg version="1.1" width="31.622776601683793px" height="31.622776601683793px" viewBox="0 0 31.622776601683793 31.622776601683793"><g id="original-65582"><svg xmlns="http://www.w3.org/2000/svg" fill-rule="evenodd" stroke-miterlimit="1.414" viewBox="0 0 22 22" clip-rule="evenodd" stroke-linejoin="round" xmlns:xlink="http://www.w3.org/1999/xlink" version="1.1" preserveAspectRatio="xMidYMid meet">
  <path d="M13.913-.001l1.562 7.485c.063.266.131.513.27.745.139.24.287.44.506.627l5.706 5.076-7.48 1.542a2.265 2.265 0 0 0-.75.29c-.237.132-.42.312-.608.51l-5.095 5.702-1.56-7.485c-.064-.266-.133-.513-.272-.746a2.265 2.265 0 0 0-.505-.626L-.02 8.043 7.46 6.5c.283-.052.512-.152.75-.29.238-.131.42-.311.609-.51L13.913 0z" fill="rgba(65, 65, 89, 1)" stroke="none"/>
</svg>
</g></svg></g></g>
<!-- /image 65582 -->

<!-- image 99921 -->
<g id="transformed-99921" data-image="99921" transform="translate(52.63932022500211, 39.6393202250021) rotate(333, 22.360679774997894, 22.360679774997898)"><g><svg version="1.1" width="44.72135954999579px" height="44.721359549995796px" viewBox="0 0 44.72135954999579 44.721359549995796"><g id="original-99921"><svg xmlns="http://www.w3.org/2000/svg" fill-rule="evenodd" stroke-miterlimit="1.414" viewBox="0 0 22 22" clip-rule="evenodd" stroke-linejoin="round" xmlns:xlink="http://www.w3.org/1999/xlink" version="1.1" preserveAspectRatio="xMidYMid meet">
  <path d="M13.913-.001l1.562 7.485c.063.266.131.513.27.745.139.24.287.44.506.627l5.706 5.076-7.48 1.542a2.265 2.265 0 0 0-.75.29c-.237.132-.42.312-.608.51l-5.095 5.702-1.56-7.485c-.064-.266-.133-.513-.272-.746a2.265 2.265 0 0 0-.505-.626L-.02 8.043 7.46 6.5c.283-.052.512-.152.75-.29.238-.131.42-.311.609-.51L13.913 0z" fill="rgba(103, 102, 128, 1)" stroke="none"/>
</svg>
</g></svg></g></g>
<!-- /image 99921 -->

<!-- image 51671 -->
<g id="transformed-51671" data-image="51671" transform="translate(118.63932022500211, 130.6393202250021) rotate(333, 22.360679774997894, 22.360679774997898)"><g><svg version="1.1" width="44.72135954999579px" height="44.721359549995796px" viewBox="0 0 44.72135954999579 44.721359549995796"><g id="original-51671"><svg xmlns="http://www.w3.org/2000/svg" fill-rule="evenodd" stroke-miterlimit="1.414" viewBox="0 0 22 22" clip-rule="evenodd" stroke-linejoin="round" xmlns:xlink="http://www.w3.org/1999/xlink" version="1.1" preserveAspectRatio="xMidYMid meet">
  <path d="M13.913-.001l1.562 7.485c.063.266.131.513.27.745.139.24.287.44.506.627l5.706 5.076-7.48 1.542a2.265 2.265 0 0 0-.75.29c-.237.132-.42.312-.608.51l-5.095 5.702-1.56-7.485c-.064-.266-.133-.513-.272-.746a2.265 2.265 0 0 0-.505-.626L-.02 8.043 7.46 6.5c.283-.052.512-.152.75-.29.238-.131.42-.311.609-.51L13.913 0z" fill="rgba(103, 102, 128, 1)" stroke="none"/>
</svg>
</g></svg></g></g>
<!-- /image 51671 -->

<!-- image 66454 -->
<g id="transformed-66454" data-image="66454" transform="translate(51.1886116991581, 199.18861169915812) rotate(325, 15.811388300841896, 15.811388300841896)"><g><svg version="1.1" width="31.622776601683793px" height="31.622776601683793px" viewBox="0 0 31.622776601683793 31.622776601683793"><g id="original-66454"><svg xmlns="http://www.w3.org/2000/svg" fill-rule="evenodd" stroke-miterlimit="1.414" viewBox="0 0 22 22" clip-rule="evenodd" stroke-linejoin="round" xmlns:xlink="http://www.w3.org/1999/xlink" version="1.1" preserveAspectRatio="xMidYMid meet">
  <path d="M13.913-.001l1.562 7.485c.063.266.131.513.27.745.139.24.287.44.506.627l5.706 5.076-7.48 1.542a2.265 2.265 0 0 0-.75.29c-.237.132-.42.312-.608.51l-5.095 5.702-1.56-7.485c-.064-.266-.133-.513-.272-.746a2.265 2.265 0 0 0-.505-.626L-.02 8.043 7.46 6.5c.283-.052.512-.152.75-.29.238-.131.42-.311.609-.51L13.913 0z" fill="rgba(65, 65, 89, 1)" stroke="none"/>
</svg>
</g></svg></g></g>
<!-- /image 66454 -->

<!-- image 19633 -->
<g id="transformed-19633" data-image="19633" transform="translate(218.18861169915812, 139.18861169915812) rotate(325, 15.811388300841896, 15.811388300841896)"><g><svg version="1.1" width="31.622776601683793px" height="31.622776601683793px" viewBox="0 0 31.622776601683793 31.622776601683793"><g id="original-19633"><svg xmlns="http://www.w3.org/2000/svg" fill-rule="evenodd" stroke-miterlimit="1.414" viewBox="0 0 22 22" clip-rule="evenodd" stroke-linejoin="round" xmlns:xlink="http://www.w3.org/1999/xlink" version="1.1" preserveAspectRatio="xMidYMid meet">
  <path d="M13.913-.001l1.562 7.485c.063.266.131.513.27.745.139.24.287.44.506.627l5.706 5.076-7.48 1.542a2.265 2.265 0 0 0-.75.29c-.237.132-.42.312-.608.51l-5.095 5.702-1.56-7.485c-.064-.266-.133-.513-.272-.746a2.265 2.265 0 0 0-.505-.626L-.02 8.043 7.46 6.5c.283-.052.512-.152.75-.29.238-.131.42-.311.609-.51L13.913 0z" fill="rgba(65, 65, 89, 1)" stroke="none"/>
</svg>
</g></svg></g></g>
<!-- /image 19633 -->

<!-- image 40912 -->
<g id="transformed-40912" data-image="40912" transform="translate(-4, 234) rotate(327, 10, 10)"><g><svg version="1.1" width="20px" height="20px" viewBox="0 0 20 20"><g id="original-40912"><svg xmlns="http://www.w3.org/2000/svg" fill-rule="evenodd" stroke-miterlimit="1.414" viewBox="0 0 22 22" clip-rule="evenodd" stroke-linejoin="round" xmlns:xlink="http://www.w3.org/1999/xlink" version="1.1" preserveAspectRatio="xMidYMid meet">
  <path d="M13.913-.001l1.562 7.485c.063.266.131.513.27.745.139.24.287.44.506.627l5.706 5.076-7.48 1.542a2.265 2.265 0 0 0-.75.29c-.237.132-.42.312-.608.51l-5.095 5.702-1.56-7.485c-.064-.266-.133-.513-.272-.746a2.265 2.265 0 0 0-.505-.626L-.02 8.043 7.46 6.5c.283-.052.512-.152.75-.29.238-.131.42-.311.609-.51L13.913 0z" fill="rgba(46, 44, 75, 1)" stroke="none"/>
</svg>
</g></svg></g></g>
<!-- /image 40912 -->
</defs><rect x="0" y="0" width="250" height="250" fill="rgba(9, 9, 34, 1)"></rect><use xlink:href="#transformed-65582" transform="translate(-250, -250)"></use><use xlink:href="#transformed-65582" transform="translate(0, -250)"></use><use xlink:href="#transformed-65582" transform="translate(250, -250)"></use><use xlink:href="#transformed-65582" transform="translate(-250, 0)"></use><use xlink:href="#transformed-65582" transform="translate(0, 0)"></use><use xlink:href="#transformed-65582" transform="translate(250, 0)"></use><use xlink:href="#transformed-65582" transform="translate(-250, 250)"></use><use xlink:href="#transformed-65582" transform="translate(0, 250)"></use><use xlink:href="#transformed-65582" transform="translate(250, 250)"></use><use xlink:href="#transformed-99921" transform="translate(-250, -250)"></use><use xlink:href="#transformed-99921" transform="translate(0, -250)"></use><use xlink:href="#transformed-99921" transform="translate(250, -250)"></use><use xlink:href="#transformed-99921" transform="translate(-250, 0)"></use><use xlink:href="#transformed-99921" transform="translate(0, 0)"></use><use xlink:href="#transformed-99921" transform="translate(250, 0)"></use><use xlink:href="#transformed-99921" transform="translate(-250, 250)"></use><use xlink:href="#transformed-99921" transform="translate(0, 250)"></use><use xlink:href="#transformed-99921" transform="translate(250, 250)"></use><use xlink:href="#transformed-51671" transform="translate(-250, -250)"></use><use xlink:href="#transformed-51671" transform="translate(0, -250)"></use><use xlink:href="#transformed-51671" transform="translate(250, -250)"></use><use xlink:href="#transformed-51671" transform="translate(-250, 0)"></use><use xlink:href="#transformed-51671" transform="translate(0, 0)"></use><use xlink:href="#transformed-51671" transform="translate(250, 0)"></use><use xlink:href="#transformed-51671" transform="translate(-250, 250)"></use><use xlink:href="#transformed-51671" transform="translate(0, 250)"></use><use xlink:href="#transformed-51671" transform="translate(250, 250)"></use><use xlink:href="#transformed-66454" transform="translate(-250, -250)"></use><use xlink:href="#transformed-66454" transform="translate(0, -250)"></use><use xlink:href="#transformed-66454" transform="translate(250, -250)"></use><use xlink:href="#transformed-66454" transform="translate(-250, 0)"></use><use xlink:href="#transformed-66454" transform="translate(0, 0)"></use><use xlink:href="#transformed-66454" transform="translate(250, 0)"></use><use xlink:href="#transformed-66454" transform="translate(-250, 250)"></use><use xlink:href="#transformed-66454" transform="translate(0, 250)"></use><use xlink:href="#transformed-66454" transform="translate(250, 250)"></use><use xlink:href="#transformed-19633" transform="translate(-250, -250)"></use><use xlink:href="#transformed-19633" transform="translate(0, -250)"></use><use xlink:href="#transformed-19633" transform="translate(250, -250)"></use><use xlink:href="#transformed-19633" transform="translate(-250, 0)"></use><use xlink:href="#transformed-19633" transform="translate(0, 0)"></use><use xlink:href="#transformed-19633" transform="translate(250, 0)"></use><use xlink:href="#transformed-19633" transform="translate(-250, 250)"></use><use xlink:href="#transformed-19633" transform="translate(0, 250)"></use><use xlink:href="#transformed-19633" transform="translate(250, 250)"></use><use xlink:href="#transformed-40912" transform="translate(-250, -250)"></use><use xlink:href="#transformed-40912" transform="translate(0, -250)"></use><use xlink:href="#transformed-40912" transform="translate(250, -250)"></use><use xlink:href="#transformed-40912" transform="translate(-250, 0)"></use><use xlink:href="#transformed-40912" transform="translate(0, 0)"></use><use xlink:href="#transformed-40912" transform="translate(250, 0)"></use><use xlink:href="#transformed-40912" transform="translate(-250, 250)"></use><use xlink:href="#transformed-40912" transform="translate(0, 250)"></use><use xlink:href="#transformed-40912" transform="translate(250, 250)"></use></svg>